<?xml version="1.0" standalone="no"?><!DOCTYPE svg PUBLIC "-//W3C//DTD SVG 1.1//EN" "http://www.w3.org/Graphics/SVG/1.1/DTD/svg11.dtd"><svg t="1576481645483" class="icon" viewBox="0 0 1024 1024" version="1.1" xmlns="http://www.w3.org/2000/svg" p-id="3869" xmlns:xlink="http://www.w3.org/1999/xlink" width="200" height="200"><defs><style type="text/css"></style></defs><path d="M1015.54 422.41c-5.35-30.3-32.09-52.88-63.58-51.69-42.19 1.19-80.82-20.8-101.62-57.05-20.8-36.25-20.2-80.81 1.78-116.47 16.04-26.74 10.69-61.2-13.07-80.81-45.16-37.44-95.67-67.15-150.34-87.35-29.12-10.7-61.8 1.78-76.66 29.12-19.61 36.84-58.23 60.01-100.43 60.01-41.6 0-80.22-23.17-100.43-60.01-14.85-27.34-47.53-39.82-76.65-29.12-54.67 20.2-105.77 49.32-150.34 87.35-23.77 19.61-29.12 54.67-13.07 80.81 21.99 35.66 22.58 80.22 1.78 116.47-20.8 36.25-60.02 57.64-101.62 57.05h-1.78c-30.3 0-57.04 21.98-61.8 51.69C2.97 450.94 0 480.65 0 509.17c0 29.12 2.37 58.23 7.72 86.76 5.35 30.3 32.68 52.88 63.58 51.69 41.6-1.18 80.82 20.8 101.62 57.05 20.8 36.25 20.2 80.81-1.78 116.47-16.04 26.74-10.69 61.2 13.07 80.81 45.16 37.44 95.67 67.15 150.34 87.35 29.12 10.7 61.8-1.78 76.65-29.12 19.61-36.84 58.24-60.01 100.43-60.01 42.19 0 80.22 23.17 100.43 60.01 11.29 20.8 32.68 33.28 55.26 33.28 7.13 0 14.26-1.18 21.39-3.56 54.67-20.2 105.77-49.32 150.34-87.35 23.77-19.61 29.12-54.67 13.07-80.81-21.99-35.66-22.58-80.22-1.78-116.47 20.8-36.25 60.02-57.65 101.62-57.05 30.9 0.6 58.23-21.39 63.58-51.69 4.75-28.53 7.72-58.23 7.72-86.76 0-28.53-2.97-58.83-7.72-87.36z m-74.28 148.56C875.9 573.34 815.88 609 783.2 666.05c-33.28 57.04-33.87 127.16-3.56 184.81-32.68 25.55-68.33 46.35-106.96 61.8-35.06-55.27-95.67-89.73-161.63-89.73s-127.17 33.87-161.63 89.73c-38.62-15.45-74.28-36.25-106.96-61.8 30.9-57.64 29.71-127.76-3.56-184.81-33.28-57.05-92.7-92.7-158.06-95.08-2.98-20.2-4.16-41-4.16-61.8 0-20.8 1.18-41.01 4.16-61.81 65.36-2.37 125.38-38.03 158.06-95.08 33.28-57.04 33.87-127.16 3.56-184.81 32.68-25.55 68.34-46.34 106.96-61.8 35.06 55.26 95.67 89.73 161.63 89.73s127.16-33.87 161.63-89.73c38.63 15.45 74.28 36.25 106.96 61.8-30.9 57.65-29.71 127.76 3.56 184.81 33.28 57.04 92.7 92.7 158.06 95.08 2.97 20.21 4.16 41.01 4.16 61.81 0 20.8-1.19 41.6-4.16 61.8z m0 0" fill="#C9C9C9" p-id="3870"></path><path d="M511.04 310.1c-108.16 0-196.1 87.95-196.1 196.1s87.94 196.1 196.1 196.1c108.15 0 196.1-87.95 196.1-196.1s-87.95-196.1-196.1-196.1z m0 314.35c-65.37 0-118.85-53.48-118.85-118.85 0-65.36 53.48-118.84 118.85-118.84 65.36 0 118.84 53.48 118.84 118.84 0 65.37-52.88 118.85-118.84 118.85z m0 0" fill="#C9C9C9" p-id="3871"></path></svg>