<?xml version="1.0" standalone="no"?><!DOCTYPE svg PUBLIC "-//W3C//DTD SVG 1.1//EN" "http://www.w3.org/Graphics/SVG/1.1/DTD/svg11.dtd"><svg t="1576481957216" class="icon" viewBox="0 0 1024 1024" version="1.1" xmlns="http://www.w3.org/2000/svg" p-id="13006" width="240" height="240" xmlns:xlink="http://www.w3.org/1999/xlink"><defs><style type="text/css"></style></defs><path d="M957.607737 925.996453 914.225747 88.271726C911.689991 38.824482 870.80949 0 821.190911 0L202.740555 0C153.19051 0 112.344276 38.824482 109.80852 88.271726L66.392263 925.996453c-1.336412 25.494629 7.881404 50.475253 25.460362 68.97942s42.011311 29.024127 67.540207 29.024127l705.214336 0c25.563163 0 49.961249-10.519961 67.50594-29.024127C949.692066 976.471706 958.944149 951.525349 957.607737 925.996453zM789.83663 213.894455c-31.834019 124.354851-143.852759 214.85393-277.562494 214.85393-133.572667 0-245.55714-90.327745-277.459693-214.579795C209.731018 204.368236 191.912191 179.97015 191.912191 151.391493c0-37.213934 30.154938-67.403139 67.403139-67.403139C296.529264 83.988355 326.684202 114.177559 326.684202 151.391493c0 21.314058-9.903156 40.297962-25.357561 52.634073 26.693973 91.869759 110.956464 157.902219 210.981762 157.902219 99.922498 0 184.04792-65.861125 210.844694-157.559549-15.728541-12.301844-25.837299-31.49135-25.837299-53.01101 0-37.213934 30.189205-67.403139 67.403139-67.403139 37.179667 0 67.334605 30.189205 67.334605 67.403139C832.053542 179.696014 814.577385 203.922765 789.83663 213.894455z" p-id="13007"></path></svg>